<mxfile host="65bd71144e">
    <diagram id="3hkoi7SlH17F2ftz7Re7" name="Page-1">
        <mxGraphModel dx="1597" dy="1527" grid="1" gridSize="10" guides="1" tooltips="1" connect="1" arrows="1" fold="1" page="1" pageScale="1" pageWidth="850" pageHeight="1100" math="0" shadow="0">
            <root>
                <mxCell id="0"/>
                <mxCell id="1" parent="0"/>
                <mxCell id="19" value="Parent Class: Ghost" style="swimlane;fontStyle=0;childLayout=stackLayout;horizontal=1;startSize=30;horizontalStack=0;resizeParent=1;resizeParentMax=0;resizeLast=0;collapsible=1;marginBottom=0;whiteSpace=wrap;html=1;rounded=1;shadow=0;glass=0;fontFamily=Lucida Console;fontSize=8;swimlaneFillColor=default;" parent="1" vertex="1">
                    <mxGeometry x="280" y="-240" width="170" height="90" as="geometry"/>
                </mxCell>
                <mxCell id="20" value="color = this.color&lt;br&gt;" style="text;strokeColor=none;fillColor=none;align=left;verticalAlign=middle;spacingLeft=4;spacingRight=4;overflow=hidden;points=[[0,0.5],[1,0.5]];portConstraint=eastwest;rotatable=0;whiteSpace=wrap;html=1;rounded=1;shadow=0;glass=0;fontFamily=Lucida Console;fontSize=8;" parent="19" vertex="1">
                    <mxGeometry y="30" width="170" height="30" as="geometry"/>
                </mxCell>
                <mxCell id="21" value="speed = this.speed" style="text;strokeColor=none;fillColor=none;align=left;verticalAlign=middle;spacingLeft=4;spacingRight=4;overflow=hidden;points=[[0,0.5],[1,0.5]];portConstraint=eastwest;rotatable=0;whiteSpace=wrap;html=1;rounded=1;shadow=0;glass=0;fontFamily=Lucida Console;fontSize=8;" parent="19" vertex="1">
                    <mxGeometry y="60" width="170" height="30" as="geometry"/>
                </mxCell>
                <mxCell id="23" value="Ghost1Lev1" style="swimlane;horizontal=0;whiteSpace=wrap;html=1;rounded=1;shadow=0;glass=0;fontFamily=Lucida Console;fontSize=8;" parent="1" vertex="1">
                    <mxGeometry x="-58.75" y="110" width="120" height="100" as="geometry"/>
                </mxCell>
                <mxCell id="37" value="&lt;span style=&quot;color: rgb(240, 240, 240); font-family: &amp;quot;Lucida Console&amp;quot;; font-size: 8px; font-style: normal; font-variant-ligatures: normal; font-variant-caps: normal; font-weight: 400; letter-spacing: normal; orphans: 2; text-align: center; text-indent: 0px; text-transform: none; widows: 2; word-spacing: 0px; -webkit-text-stroke-width: 0px; background-color: rgb(42, 37, 47); text-decoration-thickness: initial; text-decoration-style: initial; text-decoration-color: initial; float: none; display: inline !important;&quot;&gt;Level: 1&lt;/span&gt;" style="text;whiteSpace=wrap;html=1;fontSize=8;fontFamily=Lucida Console;rounded=1;" parent="23" vertex="1">
                    <mxGeometry x="30" y="10" width="90" height="30" as="geometry"/>
                </mxCell>
                <mxCell id="24" value="Ghost1Lev2" style="swimlane;horizontal=0;whiteSpace=wrap;html=1;rounded=1;shadow=0;glass=0;fontFamily=Lucida Console;fontSize=8;" parent="1" vertex="1">
                    <mxGeometry x="-57.5" y="230" width="120" height="100" as="geometry"/>
                </mxCell>
                <mxCell id="38" value="&lt;span style=&quot;color: rgb(240, 240, 240); font-family: &amp;quot;Lucida Console&amp;quot;; font-size: 8px; font-style: normal; font-variant-ligatures: normal; font-variant-caps: normal; font-weight: 400; letter-spacing: normal; orphans: 2; text-align: center; text-indent: 0px; text-transform: none; widows: 2; word-spacing: 0px; -webkit-text-stroke-width: 0px; background-color: rgb(42, 37, 47); text-decoration-thickness: initial; text-decoration-style: initial; text-decoration-color: initial; float: none; display: inline !important;&quot;&gt;Level: 2&lt;/span&gt;" style="text;whiteSpace=wrap;html=1;fontSize=8;fontFamily=Lucida Console;rounded=1;" parent="24" vertex="1">
                    <mxGeometry x="30" y="10" width="90" height="30" as="geometry"/>
                </mxCell>
                <mxCell id="25" value="Ghost1Lev3" style="swimlane;horizontal=0;whiteSpace=wrap;html=1;rounded=1;shadow=0;glass=0;fontFamily=Lucida Console;fontSize=8;startSize=23;" parent="1" vertex="1">
                    <mxGeometry x="-60" y="360" width="122.5" height="100" as="geometry"/>
                </mxCell>
                <mxCell id="39" value="&lt;span style=&quot;color: rgb(240, 240, 240); font-family: &amp;quot;Lucida Console&amp;quot;; font-size: 8px; font-style: normal; font-variant-ligatures: normal; font-variant-caps: normal; font-weight: 400; letter-spacing: normal; orphans: 2; text-align: center; text-indent: 0px; text-transform: none; widows: 2; word-spacing: 0px; -webkit-text-stroke-width: 0px; background-color: rgb(42, 37, 47); text-decoration-thickness: initial; text-decoration-style: initial; text-decoration-color: initial; float: none; display: inline !important;&quot;&gt;Level: 3&lt;/span&gt;" style="text;whiteSpace=wrap;html=1;fontSize=8;fontFamily=Lucida Console;rounded=1;" parent="25" vertex="1">
                    <mxGeometry x="30" y="10" width="90" height="30" as="geometry"/>
                </mxCell>
                <mxCell id="31" value="Ghost1" style="swimlane;whiteSpace=wrap;html=1;rounded=1;shadow=0;glass=0;fontFamily=Lucida Console;fontSize=8;fillColor=#1b1821;swimlaneFillColor=default;gradientColor=none;" parent="1" vertex="1">
                    <mxGeometry x="-80" y="-70" width="165" height="150" as="geometry"/>
                </mxCell>
                <mxCell id="33" value="&lt;b&gt;Traits&lt;/b&gt;:&amp;nbsp;&lt;br&gt;1.&amp;nbsp;&amp;nbsp;&lt;br&gt;&lt;span style=&quot;white-space: pre;&quot;&gt;&#9;&lt;span style=&quot;white-space: pre;&quot;&gt;&#9;&lt;/span&gt;&lt;/span&gt;this.speed = speed&lt;br&gt;&lt;span style=&quot;white-space: pre;&quot;&gt;&#9;&lt;/span&gt;&lt;span style=&quot;white-space: pre;&quot;&gt;&#9;&lt;/span&gt;var Ghost1Speed = 5&lt;br&gt;2. this.color = color&lt;br&gt;var Ghost1Color = &quot;Green&quot;" style="text;html=1;align=center;verticalAlign=middle;resizable=0;points=[];autosize=1;strokeColor=none;fillColor=none;fontSize=8;fontFamily=Lucida Console;rounded=1;" parent="31" vertex="1">
                    <mxGeometry x="-30" y="35" width="190" height="70" as="geometry"/>
                </mxCell>
                <mxCell id="40" value="Ghost2" style="swimlane;whiteSpace=wrap;html=1;rounded=1;shadow=0;glass=0;fontFamily=Lucida Console;fontSize=8;fillColor=#1b1821;swimlaneFillColor=default;gradientColor=none;" parent="1" vertex="1">
                    <mxGeometry x="292.5" y="-70" width="182.5" height="150" as="geometry"/>
                </mxCell>
                <mxCell id="41" value="&lt;b&gt;Traits&lt;/b&gt;:&amp;nbsp;&lt;br&gt;1.&amp;nbsp;&amp;nbsp;&lt;br&gt;&lt;span style=&quot;white-space: pre;&quot;&gt;&#9;&lt;span style=&quot;white-space: pre;&quot;&gt;&#9;&lt;/span&gt;&lt;/span&gt;this.speed = speed&lt;br&gt;&lt;span style=&quot;white-space: pre;&quot;&gt;&#9;&lt;/span&gt;&lt;span style=&quot;white-space: pre;&quot;&gt;&#9;&lt;/span&gt;&amp;nbsp;var ChaserSpeed = 7&lt;br&gt;&lt;br&gt;&lt;span style=&quot;white-space: pre;&quot;&gt;&#9;&lt;/span&gt;2. this.color = color&lt;br&gt;&lt;span style=&quot;white-space: pre;&quot;&gt;&#9;&lt;/span&gt;&lt;span style=&quot;white-space: pre;&quot;&gt;&#9;&lt;/span&gt;&lt;span style=&quot;white-space: pre;&quot;&gt;&#9;&lt;/span&gt;var Ghost2Color = &quot;Blue&quot;&amp;nbsp; &amp;nbsp; &amp;nbsp; &amp;nbsp;" style="text;html=1;align=center;verticalAlign=middle;resizable=0;points=[];autosize=1;strokeColor=none;fillColor=none;fontSize=8;fontFamily=Lucida Console;rounded=1;" parent="40" vertex="1">
                    <mxGeometry x="-107.5" y="35" width="290" height="80" as="geometry"/>
                </mxCell>
                <mxCell id="43" value="Ghost3" style="swimlane;whiteSpace=wrap;html=1;rounded=1;shadow=0;glass=0;fontFamily=Lucida Console;fontSize=8;fillColor=#1b1821;swimlaneFillColor=default;gradientColor=none;startSize=23;" parent="1" vertex="1">
                    <mxGeometry x="620" y="-70" width="165" height="150" as="geometry"/>
                </mxCell>
                <mxCell id="44" value="&lt;b&gt;Traits:&lt;br&gt;&lt;/b&gt;1.&amp;nbsp;&amp;nbsp;&amp;nbsp;&lt;br&gt;&lt;span style=&quot;white-space: pre;&quot;&gt;&#9;&lt;span style=&quot;white-space: pre;&quot;&gt;&#9;&lt;/span&gt;&lt;/span&gt;this.speed = speed&lt;br&gt;&lt;span style=&quot;white-space: pre;&quot;&gt;&#9;&lt;/span&gt;&lt;span style=&quot;white-space: pre;&quot;&gt;&#9;&lt;/span&gt;var ChaserSpeed = 9&lt;br&gt;&lt;br&gt;&lt;span style=&quot;white-space: pre;&quot;&gt;&#9;&lt;/span&gt;2.this.color = color&lt;br&gt;&lt;span style=&quot;white-space: pre;&quot;&gt;&#9;&lt;/span&gt;&lt;span style=&quot;white-space: pre;&quot;&gt;&#9;&lt;/span&gt;&amp;nbsp; Ghost3Color = &quot;Red&quot;" style="text;html=1;align=center;verticalAlign=middle;resizable=0;points=[];autosize=1;strokeColor=none;fillColor=none;fontSize=8;fontFamily=Lucida Console;rounded=1;" parent="43" vertex="1">
                    <mxGeometry x="-60" y="50" width="200" height="80" as="geometry"/>
                </mxCell>
                <mxCell id="47" value="Ghost2Lev2" style="swimlane;horizontal=0;whiteSpace=wrap;html=1;rounded=1;shadow=0;glass=0;fontFamily=Lucida Console;fontSize=8;" parent="1" vertex="1">
                    <mxGeometry x="315" y="230" width="120" height="100" as="geometry"/>
                </mxCell>
                <mxCell id="48" value="&lt;span style=&quot;color: rgb(240, 240, 240); font-family: &amp;quot;Lucida Console&amp;quot;; font-size: 8px; font-style: normal; font-variant-ligatures: normal; font-variant-caps: normal; font-weight: 400; letter-spacing: normal; orphans: 2; text-align: center; text-indent: 0px; text-transform: none; widows: 2; word-spacing: 0px; -webkit-text-stroke-width: 0px; background-color: rgb(42, 37, 47); text-decoration-thickness: initial; text-decoration-style: initial; text-decoration-color: initial; float: none; display: inline !important;&quot;&gt;Level: 2&lt;/span&gt;" style="text;whiteSpace=wrap;html=1;fontSize=8;fontFamily=Lucida Console;rounded=1;" parent="47" vertex="1">
                    <mxGeometry x="30" y="10" width="90" height="30" as="geometry"/>
                </mxCell>
                <mxCell id="49" value="Ghost2Lev1" style="swimlane;horizontal=0;whiteSpace=wrap;html=1;rounded=1;shadow=0;glass=0;fontFamily=Lucida Console;fontSize=8;" parent="1" vertex="1">
                    <mxGeometry x="315" y="110" width="120" height="100" as="geometry"/>
                </mxCell>
                <mxCell id="50" value="&lt;span style=&quot;color: rgb(240, 240, 240); font-family: &amp;quot;Lucida Console&amp;quot;; font-size: 8px; font-style: normal; font-variant-ligatures: normal; font-variant-caps: normal; font-weight: 400; letter-spacing: normal; orphans: 2; text-align: center; text-indent: 0px; text-transform: none; widows: 2; word-spacing: 0px; -webkit-text-stroke-width: 0px; background-color: rgb(42, 37, 47); text-decoration-thickness: initial; text-decoration-style: initial; text-decoration-color: initial; float: none; display: inline !important;&quot;&gt;Level: 1&lt;/span&gt;" style="text;whiteSpace=wrap;html=1;fontSize=8;fontFamily=Lucida Console;rounded=1;" parent="49" vertex="1">
                    <mxGeometry x="30" y="10" width="90" height="30" as="geometry"/>
                </mxCell>
                <mxCell id="51" value="Ghost2Lev3" style="swimlane;horizontal=0;whiteSpace=wrap;html=1;rounded=1;shadow=0;glass=0;fontFamily=Lucida Console;fontSize=8;" parent="1" vertex="1">
                    <mxGeometry x="315" y="360" width="120" height="100" as="geometry"/>
                </mxCell>
                <mxCell id="52" value="&lt;span style=&quot;color: rgb(240, 240, 240); font-family: &amp;quot;Lucida Console&amp;quot;; font-size: 8px; font-style: normal; font-variant-ligatures: normal; font-variant-caps: normal; font-weight: 400; letter-spacing: normal; orphans: 2; text-align: center; text-indent: 0px; text-transform: none; widows: 2; word-spacing: 0px; -webkit-text-stroke-width: 0px; background-color: rgb(42, 37, 47); text-decoration-thickness: initial; text-decoration-style: initial; text-decoration-color: initial; float: none; display: inline !important;&quot;&gt;Level: 3&lt;/span&gt;" style="text;whiteSpace=wrap;html=1;fontSize=8;fontFamily=Lucida Console;rounded=1;" parent="51" vertex="1">
                    <mxGeometry x="30" y="10" width="90" height="30" as="geometry"/>
                </mxCell>
                <mxCell id="55" value="Ghost3Lev1" style="swimlane;horizontal=0;whiteSpace=wrap;html=1;rounded=1;shadow=0;glass=0;fontFamily=Lucida Console;fontSize=8;" parent="1" vertex="1">
                    <mxGeometry x="640" y="110" width="120" height="100" as="geometry"/>
                </mxCell>
                <mxCell id="56" value="&lt;span style=&quot;color: rgb(240, 240, 240); font-family: &amp;quot;Lucida Console&amp;quot;; font-size: 8px; font-style: normal; font-variant-ligatures: normal; font-variant-caps: normal; font-weight: 400; letter-spacing: normal; orphans: 2; text-align: center; text-indent: 0px; text-transform: none; widows: 2; word-spacing: 0px; -webkit-text-stroke-width: 0px; background-color: rgb(42, 37, 47); text-decoration-thickness: initial; text-decoration-style: initial; text-decoration-color: initial; float: none; display: inline !important;&quot;&gt;Level: 1&lt;/span&gt;" style="text;whiteSpace=wrap;html=1;fontSize=8;fontFamily=Lucida Console;rounded=1;" parent="55" vertex="1">
                    <mxGeometry x="30" y="10" width="90" height="30" as="geometry"/>
                </mxCell>
                <mxCell id="57" value="Ghost3Lev2" style="swimlane;horizontal=0;whiteSpace=wrap;html=1;rounded=1;shadow=0;glass=0;fontFamily=Lucida Console;fontSize=8;" parent="1" vertex="1">
                    <mxGeometry x="642.5" y="230" width="120" height="100" as="geometry"/>
                </mxCell>
                <mxCell id="58" value="&lt;span style=&quot;color: rgb(240, 240, 240); font-family: &amp;quot;Lucida Console&amp;quot;; font-size: 8px; font-style: normal; font-variant-ligatures: normal; font-variant-caps: normal; font-weight: 400; letter-spacing: normal; orphans: 2; text-align: center; text-indent: 0px; text-transform: none; widows: 2; word-spacing: 0px; -webkit-text-stroke-width: 0px; background-color: rgb(42, 37, 47); text-decoration-thickness: initial; text-decoration-style: initial; text-decoration-color: initial; float: none; display: inline !important;&quot;&gt;Level: 2&lt;/span&gt;" style="text;whiteSpace=wrap;html=1;fontSize=8;fontFamily=Lucida Console;rounded=1;" parent="57" vertex="1">
                    <mxGeometry x="30" y="10" width="90" height="30" as="geometry"/>
                </mxCell>
                <mxCell id="59" value="Ghost3Lev3" style="swimlane;horizontal=0;whiteSpace=wrap;html=1;rounded=1;shadow=0;glass=0;fontFamily=Lucida Console;fontSize=8;" parent="1" vertex="1">
                    <mxGeometry x="640" y="360" width="120" height="100" as="geometry"/>
                </mxCell>
                <mxCell id="60" value="&lt;span style=&quot;color: rgb(240, 240, 240); font-family: &amp;quot;Lucida Console&amp;quot;; font-size: 8px; font-style: normal; font-variant-ligatures: normal; font-variant-caps: normal; font-weight: 400; letter-spacing: normal; orphans: 2; text-align: center; text-indent: 0px; text-transform: none; widows: 2; word-spacing: 0px; -webkit-text-stroke-width: 0px; background-color: rgb(42, 37, 47); text-decoration-thickness: initial; text-decoration-style: initial; text-decoration-color: initial; float: none; display: inline !important;&quot;&gt;Level: 3&lt;/span&gt;" style="text;whiteSpace=wrap;html=1;fontSize=8;fontFamily=Lucida Console;rounded=1;" parent="59" vertex="1">
                    <mxGeometry x="30" y="10" width="90" height="30" as="geometry"/>
                </mxCell>
                <mxCell id="61" value="" style="edgeStyle=none;orthogonalLoop=1;jettySize=auto;html=1;strokeWidth=3;shape=link;" parent="1" edge="1">
                    <mxGeometry width="80" relative="1" as="geometry">
                        <mxPoint x="-180" y="100" as="sourcePoint"/>
                        <mxPoint x="820" y="100" as="targetPoint"/>
                    </mxGeometry>
                </mxCell>
                <mxCell id="70" value="" style="endArrow=none;dashed=1;html=1;dashPattern=1 3;strokeWidth=2;exitX=0.5;exitY=0;exitDx=0;exitDy=0;" edge="1" parent="1" source="31">
                    <mxGeometry width="50" height="50" relative="1" as="geometry">
                        <mxPoint x="310" y="-100" as="sourcePoint"/>
                        <mxPoint x="360" y="-150" as="targetPoint"/>
                    </mxGeometry>
                </mxCell>
                <mxCell id="71" value="" style="endArrow=none;dashed=1;html=1;dashPattern=1 3;strokeWidth=2;exitX=0.5;exitY=0;exitDx=0;exitDy=0;" edge="1" parent="1" source="40">
                    <mxGeometry width="50" height="50" relative="1" as="geometry">
                        <mxPoint x="12.5" y="-60" as="sourcePoint"/>
                        <mxPoint x="370" y="-150" as="targetPoint"/>
                    </mxGeometry>
                </mxCell>
                <mxCell id="72" value="" style="endArrow=none;dashed=1;html=1;dashPattern=1 3;strokeWidth=2;exitX=0.5;exitY=0;exitDx=0;exitDy=0;" edge="1" parent="1" source="43">
                    <mxGeometry width="50" height="50" relative="1" as="geometry">
                        <mxPoint x="650" y="-90" as="sourcePoint"/>
                        <mxPoint x="370" y="-150" as="targetPoint"/>
                    </mxGeometry>
                </mxCell>
            </root>
        </mxGraphModel>
    </diagram>
</mxfile>